<?xml version="1.0" encoding="utf-8"?>
<!-- Generator: Adobe Illustrator 26.3.1, SVG Export Plug-In . SVG Version: 6.00 Build 0)  -->
<svg version="1.1" id="Layer_1" xmlns="http://www.w3.org/2000/svg" xmlns:xlink="http://www.w3.org/1999/xlink" x="0px" y="0px"
	 viewBox="0 0 2000 2000" style="enable-background:new 0 0 2000 2000;" xml:space="preserve">
<style type="text/css">
	.st0{fill:url(#SVGID_1_);}
	.st1{fill:#FFFFFF;}
</style>
<linearGradient id="SVGID_1_" gradientUnits="userSpaceOnUse" x1="1196.5076" y1="84.8341" x2="802.786" y2="1990.5557">
	<stop  offset="0" style="stop-color:#F9F4A6"/>
	<stop  offset="1" style="stop-color:#D1B154"/>
</linearGradient>
<circle class="st0" cx="1007.43" cy="1000" r="985.8"/>
<g>
	<path class="st1" d="M1387.41,1057.1l-14.31,61.46l110.08,25.63l-11.48,49.3c-2.52,10.82-9.21,19.7-20.09,26.65
		c-10.88,6.97-23.3,8.82-37.25,5.57l-62.81-14.62l-84.76,364.03l-146.56-34.13c-13.97-3.25-25.24-8.35-33.82-15.34
		c-8.59-6.99-16.07-17.16-22.44-30.51l-99.42-374.16l-208.69-48.59l-84.76,364.03l-149.93-34.91l84.76-364.03l-110.1-25.64
		l21.54-92.53l110.1,25.64l14.31-61.46l-110.1-25.64l11.48-49.31c2.51-10.8,9.32-19.66,20.43-26.57c11.09-6.9,23.4-8.8,36.91-5.65
		l62.83,14.63l85.23-366.05l147.91,34.44c7.65,1.78,14.2,3.67,19.69,5.66c5.47,1.98,10.11,4.49,13.92,7.5
		c3.79,3.03,7.28,6.92,10.45,11.69c3.15,4.77,6.49,10.9,9.97,18.35l101.18,378.83l208.02,48.44l85.23-366.05l149.27,34.76
		l-85.23,366.05l110.08,25.63l-21.55,92.55L1387.41,1057.1z M936.79,1016.97l-18.1-69.01l-126.98-29.57l-14.31,61.46L936.79,1016.97
		z M844.71,669.41c-1.89,16.19-4.24,31.9-7.08,47.13c-2.84,15.23-5.77,29.39-8.81,42.45l-15.57,66.85l77.67,18.08L844.71,669.41z
		 M1238.14,1022.34l-158.7-36.95l18.1,69.01l126.29,29.41L1238.14,1022.34z M1171.68,1332.25c2.08-17.08,4.56-33.84,7.42-50.26
		c2.86-16.42,5.99-31.82,9.35-46.24l13.84-59.42l-76.99-17.93L1171.68,1332.25z"/>
</g>
</svg>
